<svg width="24" height="24" viewBox="0 0 24 24" fill="none" xmlns="http://www.w3.org/2000/svg">
  <defs>
    <linearGradient id="g_rust" x1="0%" y1="0%" x2="100%" y2="100%">
      <stop offset="0%" stop-color="#FF8C00" /><stop offset="50%" stop-color="#B7410E" /><stop offset="100%" stop-color="#7B3F00" />
    </linearGradient>
  </defs>
  <!-- Vault: Storage Quota / Cylinder Fill Metaphor -->
  <path d="M4 6v12c0 1.66 3.58 3 8 3s8-1.34 8-3V6" stroke="url(#g_rust)" stroke-width="2"/>
  <ellipse cx="12" cy="6" rx="8" ry="3" stroke="url(#g_rust)" stroke-width="2"/>
  <path d="M4 12c0 1.66 3.58 3 8 3s8-1.34 8-3" stroke="url(#g_rust)" stroke-width="1.5" stroke-dasharray="2 2"/>
  <path d="M12 18c-4.42 0-8-1.34-8-3v3c0 1.66 3.58 3 8 3s8-1.34 8-3v-3c0 1.66-3.58 3-8 3z" fill="#FFD700" fill-opacity="0.3"/>
</svg>
