<svg width="24" height="24" viewBox="0 0 24 24" fill="none" xmlns="http://www.w3.org/2000/svg">
  <defs>
    <linearGradient id="g_rust" x1="0%" y1="0%" x2="100%" y2="100%">
      <stop offset="0%" stop-color="#FF8C00" /><stop offset="50%" stop-color="#B7410E" /><stop offset="100%" stop-color="#7B3F00" />
    </linearGradient>
  </defs>
  <!-- Standardized Wallet: Centered with 2px padding -->
  <path d="M18 7V4a1 1 0 00-1-1H4a2 2 0 000 4h15a1 1 0 011 1v4h-3a2 2 0 000 4h3a1 1 0 001-1v-2a1 1 0 00-1-1M3 5v14a2 2 0 002 2h15a1 1 0 001-1v-4" stroke="url(#g_rust)" stroke-width="2" stroke-linecap="round" stroke-linejoin="round"/>
</svg>
